<svg xmlns="http://www.w3.org/2000/svg" viewBox="0 0 256 256" width="256" height="256" role="img" aria-label="Tiny File Manager">
  <rect width="256" height="256" rx="48" fill="#F2F2EF"/>
  <g transform="translate(21 65) scale(0.9)">
    <g transform="translate(0,140) scale(0.1,-0.1)" fill="#000000" stroke="none">
      <path d="M160 700 l0 -600 110 0 110 0 0 260 0 260 70 0 70 0 0 -260 0 -260 110 0 110 0 0 600 0 600 -110 0 -110 0 0 -260 0 -260 -70 0 -70 0 0 260 0 260 -110 0 -110 0 0 -600z" />
      <path fill="#003500" d="M1008 1227 l-108 -72 0 -117 0 -118 110 0 110 0 0 110 0 110 70 0 70 0 0 -180 0 -180 -125 0 c-69 0 -125 -3 -125 -6 0 -3 23 -39 52 -80 l52 -74 73 0 73 0 0 -185 0 -185 -70 0 -70 0 0 115 0 115 -110 0 -110 0 0 -190 0 -190 181 0 181 0 109 73 108 72 1 181 0 181 -69 48 -68 49 68 50 69 49 0 249 0 248 -182 -1 -183 0 -107 -72z" />
      <path d="M1640 700 l0 -600 110 0 110 0 0 208 0 208 35 34 35 34 35 -34 35 -34 0 -208 0 -208 110 0 110 0 0 212 0 213 -87 87 -88 88 88 88 87 87 0 213 0 212 -110 0 -110 0 0 -208 0 -208 -70 -69 -70 -69 0 277 0 277 -110 0 -110 0 0 -600z" />
    </g>
  </g>
</svg>
