<svg xmlns="http://www.w3.org/2000/svg" viewBox="0 0 256 256" width="256" height="256" role="img" aria-label="Laravel Octane">
  <rect width="256" height="256" rx="48" fill="#EB3F32"/>
  <g transform="scale(4)">
    <path fill-rule="evenodd" clip-rule="evenodd" d="M12.5033 29.328L15.6763 20.9779C16.5113 18.8904 18.0144 17.2204 20.1019 16.3019L28.2849 12.7113C30.289 11.7928 32.5435 11.7928 34.631 12.5443L43.0646 15.7174C45.0686 16.4689 46.7386 18.0554 47.6572 20.0594L51.3312 28.2425C52.2497 30.2465 52.2497 32.501 51.4981 34.5885L48.2417 43.0221C47.4902 45.0261 45.9036 46.6962 43.8996 47.6146L35.7165 51.2887C33.7125 52.2072 31.458 52.2072 29.3705 51.4557L20.9369 48.1991C18.9329 47.4477 17.2629 45.8611 16.3443 43.8571L12.6703 35.6741C11.7518 33.67 11.7518 31.4155 12.5033 29.328ZM40.681 19.4861L19.3997 23.2328L23.1464 44.514L44.4277 40.7673L40.681 19.4861Z" fill="#FDFDFC"/>
  </g>
</svg>
