<svg xmlns="http://www.w3.org/2000/svg" viewBox="0 0 256 256" width="256" height="256" role="img" aria-label="Laravel Reverb">
  <rect width="256" height="256" rx="48" fill="#FF95A8"/>
  <g transform="scale(4)">
    <path d="M32.0012 37.2673C29.0705 37.2673 26.7734 34.8911 26.7734 32.0396C26.7734 29.1881 29.1497 26.8119 32.0012 26.8119C34.9319 26.8119 37.2289 29.1881 37.2289 32.0396C37.2289 34.8911 34.9319 37.2673 32.0012 37.2673Z" fill="#FDFDFC"/>
    <path d="M32.001 42.1772C26.3773 42.1772 21.7832 37.5831 21.7832 32.0386C21.7832 26.494 26.3773 21.9 32.001 21.9C37.6248 21.9 42.2188 26.494 42.2188 32.0386C42.2188 37.5831 37.6248 42.1772 32.001 42.1772ZM32.001 24.1178C27.6446 24.1178 24.0802 27.6821 24.0802 31.9594C24.0802 36.2366 27.6446 39.801 32.001 39.801C36.3575 39.801 39.9218 36.2366 39.9218 31.9594C39.9218 27.6821 36.3575 24.1178 32.001 24.1178Z" fill="#FDFDFC"/>
    <path d="M31.9998 47.0891C23.683 47.0891 16.8711 40.3565 16.8711 32.0396C16.8711 23.7228 23.683 16.9901 31.9998 16.9901C40.3166 16.9901 47.1285 23.7228 47.1285 32.0396C47.1285 40.3565 40.3166 47.0891 31.9998 47.0891ZM31.9998 19.2079C24.9503 19.2079 19.1681 24.9109 19.1681 31.9604C19.1681 39.0099 24.9503 44.7129 31.9998 44.7129C39.0493 44.7129 44.8315 39.0099 44.8315 31.9604C44.8315 24.9109 39.0493 19.2079 31.9998 19.2079Z" fill="#FDFDFC"/>
    <path d="M32.0005 52C20.9114 52 11.9609 43.0495 11.9609 32.0396C11.9609 21.0297 20.9906 12 32.0005 12C43.0897 12 52.0402 20.9505 52.0402 31.9604C52.0402 42.9703 43.0897 52 32.0005 52ZM32.0005 14.297C22.258 14.297 14.258 22.2178 14.258 31.9604C14.258 41.703 22.1788 49.6238 32.0005 49.6238C41.8223 49.703 49.7431 41.7822 49.7431 31.9604C49.7431 22.1386 41.8223 14.297 32.0005 14.297Z" fill="#FDFDFC"/>
  </g>
</svg>
